<svg xmlns="http://www.w3.org/2000/svg" width="512" height="512" viewBox="0 0 512 512"><switch><g><path fill="#3C5A99" d="M507 257c0 138.066-111.934 250-250 250C118.933 507 7 395.066 7 257 7 118.933 118.933 7 257 7c138.066 0 250 111.933 250 250zm0 0"/><path fill="#FFF" d="M319.843 266.792h-44.608v163.417h-67.583V266.792h-32.143v-57.449h32.143v-37.16c0-26.572 12.618-68.201 68.192-68.201l50.048.217v55.752h-36.317c-5.962 0-14.34 2.979-14.34 15.646v33.815h50.527l-5.919 57.38zm0 0"/></g></switch></svg>