<svg xmlns="http://www.w3.org/2000/svg" width="60" height="60" viewBox="0 0 60 60"><g transform="translate(370 -136)"><rect width="18" height="5" x="-132.037" y="338.913" fill="#fad461" rx="2.5" ry="2.5" transform="rotate(45)"/><path fill="#f75d70" d="m -331.59774,147.69825 3.53553,-3.53554 c 1.17521,-1.17521 3.06743,-1.17521 4.24264,0 l 5.65685,5.65686 c 1.17522,1.17521 1.17522,3.06743 0,4.24264 l -3.53553,3.53553 z"/><path fill="#47c5fe" d="m -335.13328,151.23378 9.8995,9.8995 -26.87006,26.87006 -1.06066,-3.88909 -3.88909,-1.06066 -1.06066,-3.88909 -3.88909,-1.06066 z"/><path fill="#57e3fe" d="m -336.90105,155.12287 c -0.40025,-0.40026 -0.90145,-0.6285 -1.41973,-0.70158 l -11.30266,11.30266 c 0.0731,0.51828 0.30132,1.01948 0.70158,1.41973 0.97934,0.97935 2.55619,0.97935 3.53553,0 l 8.48528,-8.48528 c 0.97935,-0.97934 0.97935,-2.55619 0,-3.53553 z m -13.43503,13.43503 c -0.40025,-0.40026 -0.90145,-0.6285 -1.41973,-0.70159 l -4.9387,4.9387 c 0.0731,0.51829 0.30132,1.01949 0.70158,1.41974 0.97934,0.97934 2.55619,0.97934 3.53553,0 l 2.12132,-2.12132 c 0.97935,-0.97934 0.97935,-2.55619 0,-3.53553 z"/><path fill="#fbd895" d="m -358.11425,179.1645 1.06066,3.88909 3.88909,1.06066 1.06066,3.88909 -10.60661,0.7071 0.70711,-10.6066 z"/><path fill="#ecb751" d="m -333.01172,147.31641 c -0.62639,0 -1.25062,0.24048 -1.73633,0.71094 l 8.18555,8.18554 c 0.97934,0.97935 0.97934,2.55777 -10e-6,3.53711 -0.009,0.009 -0.0199,0.0162 -0.0293,0.0254 l 1.00391,1.0039 c 0.97934,0.97934 2.55581,0.97934 3.53515,0 0.97935,-0.97934 0.97935,-2.55581 0,-3.53515 l -9.1914,-9.19141 c -0.48967,-0.48967 -1.12853,-0.73633 -1.76758,-0.73633 z"/><path fill="#e7426c" d="m -325.94141,143.28125 c -0.59654,0 -1.18901,0.18348 -1.70117,0.53906 l 4.9707,4.96876 c 1.17521,1.17521 1.17521,3.06697 0,4.24218 l -1.79688,1.79688 2.76954,2.76953 3.53712,-3.53514 c 1.17521,-1.17522 1.17521,-3.06698 0,-4.24219 l -5.65821,-5.65821 c -0.5876,-0.5876 -1.35423,-0.88085 -2.12109,-0.88085 z"/><path fill="#3ea2fe" d="m -335.13282,151.23438 -1.74023,1.74023 7.1289,7.12891 -23.88281,23.88281 0.46289,0.12695 1.06055,3.89063 26.86913,-26.87111 -9.89844,-9.89844 z"/><path fill="#f6b66c" d="m -357.67383,183.08399 1.06054,2.8264 -6.00781,0.40039 -0.0898,2.40016 10.60742,-0.70703 -1.06055,-3.89063 -3.88867,-1.06054 z"/><path fill="#2d3a66" fill-rule="evenodd" d="m -325.94141,142.28906 c -1.02553,0 -2.05076,0.38866 -2.82812,1.16602 l -3.08008,3.08008 c -1.23189,-0.43055 -2.66027,-0.16786 -3.63867,0.81054 -0.97877,0.97877 -1.23982,2.40648 -0.8086,3.63868 l -26.41406,26.4121 a 1.0001,1.0001 0 0 0 -0.29101,0.64063 l -0.70703,10.60742 a 1.0001,1.0001 0 0 0 1.06445,1.06445 l 10.60742,-0.70703 a 1.0001,1.0001 0 0 0 0.64063,-0.29101 l 26.4121,-26.41406 c 1.23187,0.43048 2.6603,0.16782 3.63868,-0.81055 0.97815,-0.97816 1.24062,-2.40504 0.81054,-3.63672 l 3.08008,-3.08008 c 1.55473,-1.55471 1.55473,-4.10153 0,-5.65625 l -5.6582,-5.6582 c -0.77736,-0.77736 -1.80259,-1.16602 -2.82813,-1.16602 z m 0,1.98438 c 0.50818,0 1.01621,0.19785 1.41407,0.5957 l 5.6582,5.6582 c 0.79571,0.79571 0.79571,2.03242 0,2.82813 l -2.82813,2.82812 -8.48632,-8.48632 2.82812,-2.82813 c 0.39785,-0.39785 0.90588,-0.5957 1.41406,-0.5957 z m -7.07226,4.03515 c 0.38037,0 0.76258,0.15126 1.0625,0.45118 l 9.1914,9.1914 c 0.59984,0.59984 0.59983,1.52126 0,2.1211 -0.59984,0.59983 -1.52125,0.59983 -2.12109,0 l -9.19336,-9.19141 c -0.003,-0.003 -0.005,-0.007 -0.008,-0.01 -0.59079,-0.60002 -0.589,-1.51451 0.008,-2.11132 0.29992,-0.29992 0.68018,-0.45118 1.06055,-0.45118 z m -2.1211,4.33985 0.002,0 1.41211,1.41406 -2.82618,2.82812 a 0.50005,0.50005 0 1 0 0.70704,0.70704 l 2.82617,-2.82813 1.41601,1.41406 -24.94336,24.94336 -0.60937,-2.22461 a 1.0001,1.0001 0 0 0 -0.69531,-0.70117 l -2.22071,-0.62109 24.93164,-24.93164 z m 4.95118,4.94922 3.53515,3.53515 -24.91406,24.91602 -0.63477,-2.19531 1.96485,-1.96485 a 0.50005,0.50005 0 0 0 -0.36328,-0.85742 0.50005,0.50005 0 0 0 -0.34375,0.15039 l -1.9668,1.9668 -2.2207,-0.60742 24.94336,-24.94336 z m -15.91993,7.62695 a 0.50005,0.50005 0 0 0 -0.34375,0.15039 l -5.09961,5.09961 a 0.50005,0.50005 0 1 0 0.70704,0.70703 l 5.09961,-5.09766 a 0.50005,0.50005 0 0 0 -0.36329,-0.85937 z m -6.96679,6.9668 a 0.50005,0.50005 0 0 0 -0.34375,0.15234 l -0.81055,0.81055 a 0.50005,0.50005 0 1 0 0.70703,0.70703 l 0.81055,-0.81055 a 0.50005,0.50005 0 0 0 -0.36328,-0.85937 z m 5.19922,6.11523 a 0.50005,0.50005 0 0 0 -0.34375,0.15039 l -0.85743,0.85742 a 0.50063915,0.50063915 0 1 0 0.70899,0.70703 l 0.85547,-0.85742 a 0.50005,0.50005 0 0 0 -0.36328,-0.85742 z m -13.21485,1.06641 2.15625,0.60156 0.91211,3.3418 a 1.0001,1.0001 0 0 0 0.70117,0.70117 l 3.34766,0.91406 0.62305,2.15234 -5.92383,0.39454 -2.20899,-2.20899 0.39258,-5.89648 z" color="#000" font-family="sans-serif" font-weight="400" overflow="visible" style="line-height:normal;text-indent:0;text-align:start;text-decoration-line:none;text-decoration-style:solid;text-decoration-color:#000;text-transform:none;block-progression:tb;isolation:auto;mix-blend-mode:normal"/></g></svg>